<?xml version="1.0" encoding="utf-8"?>
<!-- Generator: Adobe Illustrator 24.1.2, SVG Export Plug-In . SVG Version: 6.00 Build 0)  -->
<svg version="1.1" id="Layer_1" xmlns="http://www.w3.org/2000/svg" xmlns:xlink="http://www.w3.org/1999/xlink" x="0px" y="0px"
	 viewBox="0 0 1920 1080" style="enable-background:new 0 0 1920 1080;" xml:space="preserve">
<style type="text/css">
	.st0{fill:#ABD8CD;}
	.st1{fill:#213958;}
	.st2{fill:#CD7651;}
	.st3{fill:#F9C5B7;}
	.st4{fill:none;stroke:#F9C5B7;stroke-width:5;stroke-miterlimit:10;}
	.st5{fill:#C96941;}
</style>
<path class="st0" d="M1290.7,1080c29.97-57.93,47.22-122.24,0-158.67c-113.75-87.73-502.4,62.88-600.44-22.35
	c-60.48-52.58,59.26-134.37-6.65-197.78c-85.74-82.48-353-6.23-422.47-83.8c-50.25-56.11,63.25-125.37,13.31-193.31
	C232.67,367.27,105.84,351.23,0,347l-0.5,732.5L1290.7,1080z"/>
<g>
	<path class="st1" d="M628.72,1079.5c14.61-50.46,23.02-106.48,0-138.21C573.26,864.87,383.8,996.06,336,921.82
		c-29.49-45.8,28.89-117.05-3.24-172.28c-41.8-71.84-172.09-5.43-205.95-73c-24.5-48.87,30.83-109.21,6.49-168.38
		C112.92,458.66,51.1,444.69-0.5,441v638.5H628.72z"/>
</g>
<path class="st2" d="M1347,0c7.09,170.32,41.05,234.46,70.68,261.58c96.79,88.61,244.74-128.46,321.37-31.04
	c42.56,54.11,20.18,150.63,79.16,221.68c34.04,41,74.34,48.43,101.78,48.77V0H1347z"/>
<path class="st3" d="M1412,0c10.79,58.99,39.25,91.24,62,109.51c66.73,53.58,152.18,41.33,338,89.52
	c47.12,12.22,84.64,24.16,108,31.97V0H1412z"/>
<path class="st4" d="M1441,1080c-16.01-128.45,81.58-235.74,187-239c109.3-3.38,215.99,105.4,200,239"/>
<path class="st5" d="M1724,1080c7.91-57.36-36.74-105.74-85-106c-48.57-0.26-93.92,48.24-86,106H1724z"/>
<g>
</g>
<g>
</g>
<g>
</g>
<g>
</g>
<g>
</g>
<g>
</g>
<g>
</g>
<g>
</g>
<g>
</g>
<g>
</g>
<g>
</g>
<g>
</g>
<g>
</g>
<g>
</g>
<g>
</g>
</svg>
